<svg xmlns="http://www.w3.org/2000/svg" viewBox="0 0 627.294 168.87">
    <path fill="#A5D3EF" d="M476.984 47.571c-6.547-7.661-16.318-12.246-29.133-12.246-25.302 0-43.853 19.596-43.853 45.854 0 26.261 18.551 45.856 43.853 45.856 12.76 0 22.365-4.544 28.909-12.146v2.517c0 21.443-9.668 33.567-27.847 33.567-7.814 0-18.999-4.635-24.302-9.633l-8.622 15.465c8.02 6.975 19.917 12.065 33.135 12.065 28.956 0 46.582-20.584 46.582-50.463V37.359h-13.02l-5.702 10.212zm-27.131 61.528c-15.717 0-26.349-11.833-26.349-28.103 0-16.086 10.632-27.92 26.349-27.92 15.716 0 26.351 11.834 26.351 27.92 0 16.27-10.635 28.103-26.351 28.103M0 125h20.556L88.534 3.286V125h19.628V0H69.814L0 125zm146.479-75.778l-6.612-11.863h-13.209V125h19.231V82.838c.04-16.04 10.933-27.729 26.624-27.729h3.241v-17.75h-3.241c-12.587 0-20.136 3.379-26.034 11.863m201.763-13.897c-26.813 0-45.854 19.648-45.854 45.854 0 26.207 19.04 45.855 45.854 45.855 26.816 0 45.855-19.648 45.855-45.855 0-26.206-19.039-45.854-45.855-45.854m0 73.81c-15.716 0-26.349-11.717-26.349-27.955 0-16.237 10.633-27.956 26.349-27.956 15.717 0 26.352 11.718 26.352 27.956-.001 16.238-10.636 27.955-26.352 27.955m174.59-107.93c-6.99 0-12.316 5.326-12.316 12.484 0 6.991 5.326 12.317 12.316 12.317 7.158 0 12.652-5.326 12.652-12.317 0-7.158-5.494-12.484-12.652-12.484M513.384 125h19.229V37.358h-19.229V125zm80.078-15.889c-15.718 0-26.457-11.835-26.457-27.922 0-16.088 10.739-27.941 26.457-27.941 9.36 0 16.539 4.308 21.342 9.648l12.49-12.823c-8.175-8.885-19.725-14.748-33.94-14.748-26.488 0-45.845 19.732-45.845 45.864 0 26.132 19.356 45.846 45.845 45.846 14.216 0 25.766-5.864 33.94-14.75l-12.489-12.821c-4.8 5.336-11.982 9.647-21.343 9.647m-352.185-.255c-12.048 0-18.005-7.242-18.005-22.41V55.11h31.016V37.359h-31.016V13.647h-19.231v23.712h-18.026V55.11h18.026v31.719c0 26.826 10.758 39.226 36.576 39.226 4.879 0 9.881-.907 14.227-2.356l-3.209-16.149c-3.779.947-7.24 1.306-10.358 1.306M269.285 125h19.229V0h-19.229v125z"/>
</svg>