<?xml version="1.0" encoding="UTF-8"?>
<svg width="116px" height="31px" viewBox="0 0 116 31" version="1.1" xmlns="http://www.w3.org/2000/svg" xmlns:xlink="http://www.w3.org/1999/xlink">
    <!-- Generator: Sketch 63.1 (92452) - https://sketch.com -->
    <title>Artlogic_Brandmark_RGB_Black</title>
    <desc>Created with Sketch.</desc>
    <defs>
        <polygon id="path-1" points="0 0 115.142857 0 115.142857 31 0 31"></polygon>
    </defs>
    <g id="Page-1" stroke="none" stroke-width="1" fill="none" fill-rule="evenodd">
        <g id="Artboard" transform="translate(-196.000000, -24.000000)">
            <g id="Artlogic_Brandmark_RGB_Black" transform="translate(196.000000, 24.000000)">
                <mask id="mask-2" fill="white">
                    <use xlink:href="#path-1"></use>
                </mask>
                <g id="Clip-2"></g>
                <path d="M49.428647,22.9466453 L52.9582289,22.9466453 L52.9582289,0 L49.428647,0 L49.428647,22.9466453 Z M44.2876346,19.9830402 C42.0761622,19.9830402 40.9825406,18.6536034 40.9825406,15.8691656 L40.9825406,10.116717 L46.6758705,10.116717 L46.6758705,6.85810979 L40.9825406,6.85810979 L40.9825406,2.50522295 L37.4527752,2.50522295 L37.4527752,6.85810979 L34.1440102,6.85810979 L34.1440102,10.116717 L37.4527752,10.116717 L37.4527752,15.9394742 C37.4527752,20.8640078 39.4274614,23.1401315 44.1664882,23.1401315 C45.0620537,23.1401315 45.9801965,22.9736306 46.7779272,22.7076331 L46.1888987,19.7431101 C45.4952438,19.9171374 44.8599595,19.9830402 44.2876346,19.9830402 Z M108.933003,20.0298514 C106.048067,20.0298514 104.076501,17.857263 104.076501,14.9041215 C104.076501,11.95098 106.048067,9.77490377 108.933003,9.77490377 C110.651263,9.77490377 111.968822,10.565737 112.850437,11.5460176 L115.142857,9.19205898 C113.642661,7.56101143 111.522599,6.48472198 108.913179,6.48472198 C104.05117,6.48472198 100.498094,10.1069876 100.498094,14.9041215 C100.498094,19.7012554 104.05117,23.3200332 108.913179,23.3200332 C111.522599,23.3200332 113.642661,22.2437437 115.142857,20.6125126 L112.850621,18.2589211 C111.969556,19.2384675 110.651263,20.0298514 108.933003,20.0298514 Z M94.2342742,22.9466453 L97.7640396,22.9466453 L97.7640396,6.85810979 L94.2342742,6.85810979 L94.2342742,22.9466453 Z M95.9685032,0.221205661 C94.6852692,0.221205661 93.7076545,1.19891633 93.7076545,2.51293303 C93.7076545,3.79629301 94.6852692,4.77400367 95.9685032,4.77400367 C97.2823909,4.77400367 98.2906593,3.79629301 98.2906593,2.51293303 C98.2906593,1.19891633 97.2823909,0.221205661 95.9685032,0.221205661 Z M63.9216106,20.0342571 C61.0368579,20.0342571 59.0851161,17.8833304 59.0851161,14.9022858 C59.0851161,11.9216083 61.0368579,9.77049802 63.9216106,9.77049802 C66.8063632,9.77049802 68.7584722,11.9216083 68.7584722,14.9022858 C68.7584722,17.8833304 66.8063632,20.0342571 63.9216106,20.0342571 Z M63.9216106,6.48472198 C58.9997629,6.48472198 55.504873,10.0915675 55.504873,14.9022858 C55.504873,19.7131877 58.9997629,23.3200332 63.9216106,23.3200332 C68.8438253,23.3200332 72.3385317,19.7131877 72.3385317,14.9022858 C72.3385317,10.0915675 68.8438253,6.48472198 63.9216106,6.48472198 Z M26.886974,9.03565465 L25.6733074,6.85810979 L23.2487275,6.85810979 L23.2487275,22.9466453 L26.7786764,22.9466453 L26.7786764,15.2068337 C26.7860187,12.2623201 28.7854848,10.1165334 31.6656486,10.1165334 L32.2603673,10.1165334 L32.2603673,6.85810979 L31.6656486,6.85810979 C29.35524,6.85810979 27.9695822,7.47840351 26.886974,9.03565465 Z M0,22.9466453 L3.77315955,22.9466453 L16.2508711,0.603221413 L16.2508711,22.9466453 L19.8536915,22.9466453 L19.8536915,0 L12.8147188,0 L0,22.9466453 Z M82.5728323,20.0276485 C79.6878961,20.0276485 77.7361543,17.8554273 77.7361543,14.8686919 C77.7361543,11.9155504 79.6878961,9.74314561 82.5728323,9.74314561 C85.457585,9.74314561 87.4096939,11.9155504 87.4096939,14.8686919 C87.4096939,17.8554273 85.457585,20.0276485 82.5728323,20.0276485 Z M87.5526834,8.73275893 C86.3511314,7.32640493 84.5576141,6.48472198 82.2053549,6.48472198 C77.5610427,6.48472198 74.1560947,10.0820217 74.1560947,14.9022858 C74.1560947,19.722917 77.5610427,23.3200332 82.2053549,23.3200332 C84.5475186,23.3200332 86.3105657,22.4858767 87.5117506,21.0903535 L87.5117506,21.5524072 C87.5117506,25.4889501 85.7371395,27.7145911 82.4004741,27.7145911 C80.9659906,27.7145911 78.9131099,26.8637295 77.9397169,25.9462308 L76.3571045,28.7851898 C77.8290332,30.065429 80.0129723,31 82.4392042,31 C87.7542269,31 90.9895699,27.22133 90.9895699,21.7363475 L90.9895699,6.85810979 L88.5996819,6.85810979 L87.5526834,8.73275893 L87.5526834,8.73275893 Z" id="Fill-1" fill="#000105" mask="url(#mask-2)"></path>
            </g>
        </g>
    </g>
</svg>